<svg width="24" height="24" viewBox="0 0 24 24" fill="none" xmlns="http://www.w3.org/2000/svg">
<path d="M12 9.27692C11.4614 9.27692 10.935 9.43662 10.4872 9.73583C10.0394 10.035 9.69036 10.4603 9.48426 10.9579C9.27816 11.4555 9.22423 12.003 9.3293 12.5312C9.43437 13.0594 9.69371 13.5446 10.0745 13.9254C10.4554 14.3063 10.9406 14.5656 11.4688 14.6707C11.997 14.7757 12.5445 14.7218 13.0421 14.5157C13.5396 14.3096 13.9649 13.9606 14.2641 13.5128C14.5633 13.065 14.723 12.5385 14.723 12C14.7222 11.278 14.435 10.5859 13.9245 10.0755C13.414 9.56498 12.7219 9.27781 12 9.27692V9.27692Z" fill="#B31317"/>
<path d="M15.2035 5.06354H8.79644C7.80674 5.06468 6.85792 5.45834 6.1581 6.15816C5.45828 6.85798 5.06462 7.80681 5.06348 8.7965V15.2035C5.06462 16.1932 5.45828 17.1421 6.1581 17.8419C6.85792 18.5417 7.80674 18.9354 8.79644 18.9365H15.2035C16.1932 18.9354 17.142 18.5417 17.8418 17.8419C18.5416 17.1421 18.9353 16.1932 18.9364 15.2035V8.7965C18.9353 7.80681 18.5416 6.85798 17.8418 6.15816C17.142 5.45834 16.1932 5.06468 15.2035 5.06354V5.06354ZM12 16.1616C11.1769 16.1616 10.3723 15.9175 9.6879 15.4603C9.00352 15.003 8.47012 14.353 8.15514 13.5926C7.84016 12.8322 7.75774 11.9954 7.91832 11.1881C8.0789 10.3809 8.47525 9.63933 9.05726 9.05732C9.63927 8.47531 10.3808 8.07896 11.1881 7.91838C11.9953 7.75781 12.8321 7.84022 13.5925 8.1552C14.353 8.47018 15.0029 9.00358 15.4602 9.68796C15.9175 10.3723 16.1616 11.1769 16.1616 12C16.1603 13.1034 15.7214 14.1611 14.9412 14.9413C14.1611 15.7215 13.1033 16.1603 12 16.1616V16.1616ZM16.5729 8.46914C16.3697 8.46914 16.1711 8.4089 16.0021 8.29604C15.8331 8.18318 15.7014 8.02277 15.6236 7.83507C15.5458 7.64737 15.5253 7.44081 15.5649 7.2415C15.6044 7.04219 15.7021 6.85907 15.8457 6.71529C15.9893 6.57151 16.1723 6.47352 16.3715 6.4337C16.5708 6.39388 16.7774 6.41403 16.9652 6.49159C17.153 6.56915 17.3136 6.70065 17.4267 6.86946C17.5398 7.03827 17.6003 7.23682 17.6006 7.44002C17.6008 7.57514 17.5745 7.70898 17.5229 7.83388C17.4714 7.95879 17.3957 8.07231 17.3003 8.16794C17.2048 8.26357 17.0914 8.33944 16.9666 8.39121C16.8418 8.44297 16.708 8.46962 16.5729 8.46962V8.46914Z" fill="#B31317"/>
<path d="M23.2728 5.98755C23.2714 5.58042 23.2342 5.1742 23.1614 4.77363C23.0683 4.28451 22.9372 3.80787 22.703 3.36579C22.459 2.90001 22.1415 2.47665 21.7627 2.11203C21.1905 1.55186 20.4836 1.1485 19.7102 0.940825C18.9984 0.748825 18.2702 0.708505 17.5401 0.709465C17.5377 0.706248 17.5362 0.70243 17.5358 0.698425H6.46029C6.46029 0.702265 6.46029 0.706105 6.46029 0.709465C6.04509 0.717145 5.62893 0.713785 5.21613 0.765145C4.76345 0.813006 4.31779 0.912864 3.88797 1.06275C3.21949 1.30932 2.61615 1.70531 2.12397 2.22051C1.55978 2.79386 1.1535 3.5034 0.944606 4.28019C0.755486 4.98675 0.714206 5.70723 0.713246 6.43299L0.705566 17.5531C0.719006 18.0547 0.723326 18.5611 0.807806 19.0584C0.897566 19.5864 1.02573 20.1005 1.27053 20.5795C1.59611 21.2214 2.06006 21.7831 2.62893 22.224C3.03499 22.5477 3.49501 22.7971 3.98781 22.9608C4.71357 23.1951 5.46237 23.2848 6.22221 23.2891C6.69645 23.292 7.16973 23.304 7.64397 23.3021C11.0875 23.2877 14.5315 23.3271 17.975 23.281C18.4299 23.271 18.8832 23.2228 19.33 23.137C20.1751 22.9881 20.9615 22.6053 21.6 22.032C22.3574 21.3562 22.8686 20.5296 23.0995 19.5317C23.2507 18.8794 23.2881 18.2175 23.2948 17.5536V17.4211C23.2944 17.3693 23.2747 6.13635 23.2728 5.98755ZM20.3745 15.2035C20.3729 16.5745 19.8276 17.8889 18.8582 18.8584C17.8888 19.8278 16.5745 20.3733 15.2035 20.3751H8.79645C7.42538 20.3734 6.11094 19.828 5.14145 18.8585C4.17196 17.889 3.62658 16.5746 3.62493 15.2035V8.7965C3.62658 7.42544 4.17196 6.111 5.14145 5.14151C6.11094 4.17202 7.42538 3.62664 8.79645 3.62499H15.2035C16.5746 3.62664 17.889 4.17202 18.8585 5.14151C19.828 6.111 20.3734 7.42544 20.375 8.7965L20.3745 15.2035Z" fill="#B31317"/>
</svg>
