<svg width="912" height="211" viewBox="0 0 912 211" fill="none" xmlns="http://www.w3.org/2000/svg">
<path d="M6 159.801H32.393L68.0235 108.334V200.71L128.727 108.334V159.801L149.842 166.399L161.718 147.924L149.842 140.006V12L87.8182 108.334V12L6 159.801Z" fill="#14181F"/>
<path d="M243.537 147.924V184.874L227.701 196.751L173.595 143.965V38.393H243.537H343.83V66.1056H306.88V184.874L280.487 159.801V66.1056H243.537H199.988V85.9003H218.463V112.293H199.988V132.088L227.701 159.801L243.537 147.924Z" fill="#14181F"/>
<path d="M536.499 21.2375L519.343 41.0323L533.859 52.9091V146.604L601.161 178.276V147.924L565.531 132.088V38.393L536.499 21.2375Z" fill="#14181F"/>
<path d="M648.669 30.4751L616.997 41.0323V146.604L644.71 167.718L664.504 141.326L648.669 126.809V30.4751Z" fill="#14181F"/>
<path d="M767.437 21.2375L656.587 100.416L767.437 194.111V120.211H739.724V141.326L700.135 105.695L739.724 75.3431V96.4575H767.437V21.2375Z" fill="#14181F"/>
<path fill-rule="evenodd" clip-rule="evenodd" d="M774.035 159.801L785.912 132.088L774.035 126.809L785.912 100.416L799.109 105.695L834.739 30.4751L906 167.718L812.305 141.326L803.068 159.801H774.035ZM838.698 92.4985L826.821 114.933L851.894 122.85L838.698 92.4985Z" fill="#14181F"/>
<path fill-rule="evenodd" clip-rule="evenodd" d="M331.953 125.49L343.83 97.7771L359.666 105.695L396.616 30.4751L448.082 136.047V52.9091L437.525 41.0323L453.361 21.2375L478.434 38.393V132.088L515.384 147.924V178.276L453.361 147.924L466.557 170.358L374.182 140.006L363.625 159.801H331.953L346.469 133.408L331.953 125.49ZM396.616 93.8182L387.378 112.293L411.132 122.85L396.616 93.8182Z" fill="#14181F"/>
<path d="M243.537 66.1056H199.988V85.9003H218.463V112.293H199.988V132.088L227.701 159.801L243.537 147.924V184.874L227.701 196.751L173.595 143.965V38.393H243.537M243.537 66.1056V38.393M243.537 66.1056H280.487V159.801L306.88 184.874V66.1056H343.83V38.393H243.537M32.393 159.801H6L87.8182 12V108.334L149.842 12V140.006L161.718 147.924L149.842 166.399L128.727 159.801V108.334L68.0235 200.71V108.334L32.393 159.801ZM331.953 125.49L343.83 97.7771L359.666 105.695L396.616 30.4751L448.082 136.047V52.9091L437.525 41.0323L453.361 21.2375L478.434 38.393V132.088L515.384 147.924V178.276L453.361 147.924L466.557 170.358L374.182 140.006L363.625 159.801H331.953L346.469 133.408L331.953 125.49ZM519.343 41.0323L536.499 21.2375L565.531 38.393V132.088L601.161 147.924V178.276L533.859 146.604V52.9091L519.343 41.0323ZM616.997 41.0323L648.669 30.4751V126.809L664.504 141.326L644.71 167.718L616.997 146.604V41.0323ZM656.587 100.416L767.437 21.2375V96.4575H739.724V75.3431L700.135 105.695L739.724 141.326V120.211H767.437V194.111L656.587 100.416ZM774.035 159.801L785.912 132.088L774.035 126.809L785.912 100.416L799.109 105.695L834.739 30.4751L906 167.718L812.305 141.326L803.067 159.801H774.035ZM826.821 114.933L838.698 92.4985L851.894 122.85L826.821 114.933ZM387.378 112.293L396.616 93.8182L411.132 122.85L387.378 112.293Z" stroke="#E5E9EF" stroke-width="6"/>
<path d="M446 141L445 136H451V143.5L446 141Z" fill="#E5E9EF"/>
</svg>
