<svg width="28" height="22" viewBox="0 0 28 22" fill="none" xmlns="http://www.w3.org/2000/svg">
<path d="M13.6112 6.80508C7.63424 6.57207 3.31451 2.91268 1.90177 1.11211C-0.163009 4.50142 2.16439 7.39644 3.58619 8.42029C3.02109 8.48384 1.66631 8.05842 1.05956 7.83776C1.25517 11.566 4.18389 13.01 5.6238 13.2659C4.84136 13.499 3.64958 13.4866 3.1515 13.4513C4.15129 16.4593 7.06371 17.2113 8.39495 17.2113C5.89548 19.4567 1.75687 19.7356 0 19.5944C5.46079 22.7719 13.8829 23.4074 19.8871 17.7409C23.8064 13.4388 24.7053 10.6958 24.9403 5.45466C26.4835 4.37432 27.3945 3.13334 27.6571 2.64789C26.9834 3.02919 25.3116 3.33634 24.56 3.44226C25.951 2.72203 26.7334 1.14742 26.9508 0.450142C26.1466 1.02209 24.2249 1.57108 23.3646 1.77409C21.9776 0.48528 21.0203 0.145929 19.0992 0C15.0511 0.23831 13.0407 3.20395 13.6112 6.80508Z" fill="#B31317"/>
</svg>
